<svg id="Слой_2" data-name="Слой 2" xmlns="http://www.w3.org/2000/svg" xmlns:xlink="http://www.w3.org/1999/xlink" viewBox="0 0 97.67 92.29"><defs><style>.cls-1{fill:#1d1d1b;}.cls-2{fill:url(#Безымянный_градиент_3);}.cls-3{fill:#fff;}</style><linearGradient id="Безымянный_градиент_3" x1="49.61" y1="50" x2="0.55" y2="50" gradientUnits="userSpaceOnUse"><stop offset="0" stop-color="#1d1d1b"/><stop offset="0.86" stop-color="#1d1d1b"/><stop offset="1" stop-color="#1d1d1b"/></linearGradient></defs><path id="Правая_часть" data-name="Правая часть" class="cls-1" d="M98.16,63.73h0l.06-.31c-.82-.28-1.71-.38-2.53-.67-1-.33-2-.74-3-1.12,0-.12,5.32-6.69,5.38-6.74s.22-.17,0-.26c-.05,0-3.59-1.34-5.32-2l-.06-.06h0a26.13,26.13,0,0,1,2.21-2.24c1-.94,2-1.87,3.1-2.79.18-.17.12-.3,0-.4C96,46,94.1,44.87,92.17,43.74a.32.32,0,0,1-.17-.36A59.39,59.39,0,0,0,92.29,36a40.11,40.11,0,0,0-.56-5.8,34,34,0,0,0-2.36-7.66c-.49-1-1-2-1.52-3a32.83,32.83,0,0,0-5.73-7.24A36.22,36.22,0,0,0,68,3.85a181.43,181.43,0,0,1,.4,21.37c-.07,1.42-1,10.45-1.79,12a.42.42,0,0,1-.68.18,44.25,44.25,0,0,0-7.23-3.91A24.2,24.2,0,0,0,54,31.9c-1.05-.22-2.12-.35-3.18-.52a9,9,0,0,0-1.54-.12s.3,55.57.31,64.88a1.5,1.5,0,0,0,1-.48l.19-.18,0,0,.12-.19h0a1.24,1.24,0,0,0,.17-.23c.39-.9,1.35-3,1.39-3.06h0l.12-.18s1-1.25,1-1.32L55.1,89l.13-.13,4.3-3.28c.06,0,9.54-6.46,12.67-8.38,1.33-.84,2.66-1.7,4-2.5a38,38,0,0,1,4.06-2c1.25-.4,2.46-1,3.71-1.38,1.75-.62,3.51-1.21,5.27-1.8,1.11-.37,2.22-.7,3.32-1.08s2.48-.6,3.42-1.55c0,0,.6-.53.84-.77,0-.06.54-.74.6-.85h0C97.49,65.22,98.16,63.73,98.16,63.73Z" transform="translate(-0.55 -3.85)"/><g id="Левая_Часть" data-name="Левая Часть"><path class="cls-2" d="M49.37,31.28s-2.78.21-2.83.22a21,21,0,0,0-3.37.84,45.82,45.82,0,0,0-5.59,2.31,30.45,30.45,0,0,0-4.73,2.82.36.36,0,0,1-.58-.18A16.87,16.87,0,0,1,31.38,35c-.24-1.07-.41-2.15-.62-3.22a117,117,0,0,1-.46-15.44c.06-2.85.15-5.71.29-8.56,0-.55.17-3.17.18-3.94A34.53,34.53,0,0,0,20.61,9C19.38,10,18.19,11,17,12a38.58,38.58,0,0,0-3.83,4.24A34,34,0,0,0,10,21.42a37.18,37.18,0,0,0-2.23,6.22,41.13,41.13,0,0,0-1.18,7.57A70.06,70.06,0,0,0,7,43.27a.32.32,0,0,1-.19.35Q3.85,45.39.91,47.15c-.22.14-.23.21,0,.39s.6.51.89.78c.59.54,1.17,1.1,1.76,1.63a27.26,27.26,0,0,1,2.58,2.33c.2.23.15.31-.13.41-1.78.66-3.53,1.25-5.3,2,1.87,2.31,3.89,4.44,5.6,6.9A31.42,31.42,0,0,1,.55,63.39,9.92,9.92,0,0,0,2,66.1,5.88,5.88,0,0,0,4.8,67.92c1.2.37,2.4.77,3.6,1.15C12,70.28,15.53,71.51,19,72.86A23.22,23.22,0,0,1,23.29,75c2.52,1.66,5.11,3.22,7.66,4.85l.3.18.29.24c0-.13,5.39,3.5,8,5.32,1.13.83,2.23,1.7,3.34,2.55a13,13,0,0,1,4.66,6,3.34,3.34,0,0,0,.8,1.42c.25.21,1.25.71,1.25.51C49.61,80.81,49.39,31.92,49.37,31.28Z" transform="translate(-0.55 -3.85)"/></g><path id="Левий_глаз" data-name="Левий глаз" class="cls-3" d="M41.73,59.58c1.75-2.39-.09-4.73-2.3-5.91a15.86,15.86,0,0,0-3.19-1.24L34.75,52c-1.1-.21-2.19-.48-3.29-.61a22.45,22.45,0,0,0-2.72,0,.65.65,0,0,0-.49.26c-.11.2,0,.41.2.58l1.93,2a39.38,39.38,0,0,0,3.17,2.45C33.81,56.87,40.19,61.59,41.73,59.58Z" transform="translate(-0.55 -3.85)"/><path id="Правий_глаз" data-name="Правий глаз" class="cls-3" d="M71.37,52.21a.72.72,0,0,0-.48-.26,20.7,20.7,0,0,0-2.73,0c-1.1.13-2.19.4-3.29.6L63.38,53a16.47,16.47,0,0,0-3.19,1.24c-2.2,1.18-4,3.53-2.3,5.92,1.53,2,5.92-1.28,7.4-2.31l.78-.6c1.07-.8,2.18-1.55,3.17-2.45l1.93-2C71.33,52.63,71.49,52.42,71.37,52.21Z" transform="translate(-0.55 -3.85)"/></svg>